<svg xmlns="http://www.w3.org/2000/svg" width="330" height="60"><g fill="none" fill-rule="evenodd"><path fill="#9D9D9D" d="M12.8 2.655l4.585.228 45.238-.714h258.835a8 8 0 0 1 7.986 8.478c-.215 3.59-.363 6.605-.444 9.046-.208 6.251-.342-1.042 0 12.503.158 6.253.366 12.506.625 18.76a8 8 0 0 1-7.993 8.33H231.08c-10.614.476-31.206.714-61.775.714-30.57 0-61.14-.238-91.71-.714H16.36c-6.627 0-12-5.373-12-12a12 12 0 0 1 .07-1.284l.021-.202L4 29.39l-.64-17.416a9 9 0 0 1 9.44-9.319z"/><path fill="#FF516C" d="M9.8.486l4.585.228L59.623 0h258.835a8 8 0 0 1 7.986 8.478c-.215 3.59-.363 6.605-.444 9.046-.208 6.251-.342-1.042 0 12.503.158 6.253.366 12.506.625 18.76a8 8 0 0 1-7.993 8.33H228.08c-10.614.476-31.206.714-61.775.714-30.57 0-61.14-.238-91.71-.714H13.36c-6.627 0-12-5.372-12-12a12 12 0 0 1 .07-1.283l.021-.203L1 27.22.36 9.806A9 9 0 0 1 9.8.486z"/><path fill="#000" d="M9.8.486l4.585.228L59.623 0h258.835a8 8 0 0 1 7.986 8.478c-.215 3.59-.363 6.605-.444 9.046-.208 6.251-.342-1.042 0 12.503.158 6.253.366 12.506.625 18.76a8 8 0 0 1-7.993 8.33H228.08c-10.614.476-31.206.714-61.775.714-30.57 0-61.14-.238-91.71-.714H13.36c-6.627 0-12-5.372-12-12a12 12 0 0 1 .07-1.283l.021-.203L1 27.22.36 9.806A9 9 0 0 1 9.8.486z"/><path fill="#DFDFDF" d="M8.334 2.924l68.803-.709c62.4-.547 103.861-.809 124.386-.786 10.414.012 19.608.762 27.58.786 18.153.054 36.198-.574 54.137-.42 7.39.063 19.32.4 35.786 1.013a4 4 0 0 1 3.848 3.847l.86 22.945c.666 16.416.08 24.624-1.76 24.624-2.76 0 10.036.733-48.834.733H167.39a1425.29 1425.29 0 0 1-46.015.732 758.51 758.51 0 0 1-46.96-1.465H11.241a6 6 0 0 1-5.953-5.25A290.56 290.56 0 0 1 3 12.626c0-2.473.587-4.946 1.762-7.419a4 4 0 0 1 3.572-2.283z"/></g></svg>