<svg xmlns="http://www.w3.org/2000/svg" xmlns:xlink="http://www.w3.org/1999/xlink" width="327" height="58"><defs><path id="a" d="M8.321 2.889l68.816-.7c62.4-.54 103.861-.8 124.386-.777 10.414.012 19.608.753 27.58.777 18.153.053 36.198-.568 54.137-.416 7.39.062 19.32.396 35.786 1.002a4 4 0 0 1 3.85 3.845l.858 22.628c.666 16.22.08 24.33-1.76 24.33-2.76 0 10.036.725-48.834.725H167.39c-15.118.482-30.456.723-46.015.723-15.559 0-31.212-.482-46.96-1.447h-63.18a6 6 0 0 1-5.953-5.243A283.725 283.725 0 0 1 3 12.476c0-2.44.585-4.878 1.755-7.318A4 4 0 0 1 8.321 2.89z"/></defs><g fill="none" fill-rule="evenodd"><path fill="#000" d="M9.8.48l4.585.225L59.623 0h258.829a8 8 0 0 1 7.986 8.482 341.66 341.66 0 0 0-.438 8.834c-.208 6.176-.342-1.03 0 12.354.157 6.144.364 12.289.62 18.433a8 8 0 0 1-7.992 8.334H228.08c-10.614.47-31.206.706-61.775.706-30.57 0-61.14-.235-91.71-.706H13.379c-6.628 0-12-5.372-12-12a12 12 0 0 1 .07-1.299l.003-.027L1 26.897.365 9.804A9 9 0 0 1 9.799.481z"/><use fill="#C4A5FF" xlink:href="#a"/><use fill="#FFF" xlink:href="#a"/></g></svg>